  0
SECTION
  2
HEADER
  9
$ACADVER
  1
AC1009
  9
$INSBASE
 10
0.0
 20
0.0
 30
0.0
  9
$EXTMIN
 10
-0.0000002664008747
 20
0.0000000133811682
 30
0.0
  9
$EXTMAX
 10
297.1528812592216
 20
145.60000001338111
 30
0.0
  9
$LIMMIN
 10
0.0
 20
0.0
  9
$LIMMAX
 10
420.0
 20
297.0
  9
$ORTHOMODE
 70
     0
  9
$REGENMODE
 70
     1
  9
$FILLMODE
 70
     1
  9
$QTEXTMODE
 70
     0
  9
$MIRRTEXT
 70
     0
  9
$DRAGMODE
 70
     2
  9
$LTSCALE
 40
1.0
  9
$OSMODE
 70
    55
  9
$ATTMODE
 70
     1
  9
$TEXTSIZE
 40
2.5
  9
$TRACEWID
 40
1.0
  9
$TEXTSTYLE
  7
STANDARD
  9
$CLAYER
  8
0
  9
$CELTYPE
  6
BYLAYER
  9
$CECOLOR
 62
   256
  9
$DIMSCALE
 40
1.0
  9
$DIMASZ
 40
2.5
  9
$DIMEXO
 40
0.625
  9
$DIMDLI
 40
3.75
  9
$DIMRND
 40
0.0
  9
$DIMDLE
 40
0.0
  9
$DIMEXE
 40
1.25
  9
$DIMTP
 40
0.0
  9
$DIMTM
 40
0.0
  9
$DIMTXT
 40
2.5
  9
$DIMCEN
 40
2.5
  9
$DIMTSZ
 40
0.0
  9
$DIMTOL
 70
     0
  9
$DIMLIM
 70
     0
  9
$DIMTIH
 70
     0
  9
$DIMTOH
 70
     0
  9
$DIMSE1
 70
     0
  9
$DIMSE2
 70
     0
  9
$DIMTAD
 70
     1
  9
$DIMZIN
 70
     8
  9
$DIMBLK
  1

  9
$DIMASO
 70
     1
  9
$DIMSHO
 70
     1
  9
$DIMPOST
  1

  9
$DIMAPOST
  1

  9
$DIMALT
 70
     0
  9
$DIMALTD
 70
     3
  9
$DIMALTF
 40
0.03937007874016
  9
$DIMLFAC
 40
1.0
  9
$DIMTOFL
 70
     1
  9
$DIMTVP
 40
0.0
  9
$DIMTIX
 70
     0
  9
$DIMSOXD
 70
     0
  9
$DIMSAH
 70
     0
  9
$DIMBLK1
  1

  9
$DIMBLK2
  1

  9
$DIMSTYLE
  2
ISO-25
  9
$DIMCLRD
 70
     0
  9
$DIMCLRE
 70
     0
  9
$DIMCLRT
 70
     0
  9
$DIMTFAC
 40
1.0
  9
$DIMGAP
 40
0.625
  9
$LUNITS
 70
     2
  9
$LUPREC
 70
     4
  9
$SKETCHINC
 40
1.0
  9
$FILLETRAD
 40
0.0
  9
$AUNITS
 70
     0
  9
$AUPREC
 70
     0
  9
$MENU
  1
.
  9
$ELEVATION
 40
0.0
  9
$PELEVATION
 40
0.0
  9
$THICKNESS
 40
0.0
  9
$LIMCHECK
 70
     0
  9
$BLIPMODE
 70
     0
  9
$CHAMFERA
 40
0.0
  9
$CHAMFERB
 40
0.0
  9
$SKPOLY
 70
     0
  9
$TDCREATE
 40
2455261.6422261228
  9
$TDUPDATE
 40
2455261.6499542128
  9
$TDINDWG
 40
0.0077297106
  9
$TDUSRTIMER
 40
0.0077297106
  9
$USRTIMER
 70
     1
  9
$ANGBASE
 50
0.0
  9
$ANGDIR
 70
     0
  9
$PDMODE
 70
     0
  9
$PDSIZE
 40
0.0
  9
$PLINEWID
 40
0.0
  9
$COORDS
 70
     1
  9
$SPLFRAME
 70
     0
  9
$SPLINETYPE
 70
     6
  9
$SPLINESEGS
 70
     8
  9
$ATTDIA
 70
     0
  9
$ATTREQ
 70
     1
  9
$HANDLING
 70
     1
  9
$HANDSEED
  5
433
  9
$SURFTAB1
 70
     6
  9
$SURFTAB2
 70
     6
  9
$SURFTYPE
 70
     6
  9
$SURFU
 70
     6
  9
$SURFV
 70
     6
  9
$UCSNAME
  2

  9
$UCSORG
 10
0.0
 20
0.0
 30
0.0
  9
$UCSXDIR
 10
1.0
 20
0.0
 30
0.0
  9
$UCSYDIR
 10
0.0
 20
1.0
 30
0.0
  9
$PUCSNAME
  2

  9
$PUCSORG
 10
0.0
 20
0.0
 30
0.0
  9
$PUCSXDIR
 10
1.0
 20
0.0
 30
0.0
  9
$PUCSYDIR
 10
0.0
 20
1.0
 30
0.0
  9
$USERI1
 70
     0
  9
$USERI2
 70
     0
  9
$USERI3
 70
     0
  9
$USERI4
 70
     0
  9
$USERI5
 70
     0
  9
$USERR1
 40
0.0
  9
$USERR2
 40
0.0
  9
$USERR3
 40
0.0
  9
$USERR4
 40
0.0
  9
$USERR5
 40
0.0
  9
$WORLDVIEW
 70
     1
  9
$SHADEDGE
 70
     3
  9
$SHADEDIF
 70
    70
  9
$TILEMODE
 70
     1
  9
$MAXACTVP
 70
    64
  9
$PLIMCHECK
 70
     0
  9
$PEXTMIN
 10
0.0
 20
0.0
 30
0.0
  9
$PEXTMAX
 10
0.0
 20
0.0
 30
0.0
  9
$PLIMMIN
 10
0.0
 20
0.0
  9
$PLIMMAX
 10
12.0
 20
9.0
  9
$UNITMODE
 70
     0
  9
$VISRETAIN
 70
     1
  9
$PLINEGEN
 70
     0
  9
$PSLTSCALE
 70
     1
  0
ENDSEC
  0
SECTION
  2
TABLES
  0
TABLE
  2
VPORT
 70
     1
  0
VPORT
  2
*ACTIVE
 70
     0
 10
0.0
 20
0.0
 11
1.0
 21
1.0
 12
110.1071761623046
 22
42.353054977850761
 13
0.0
 23
0.0
 14
10.0
 24
10.0
 15
10.0
 25
10.0
 16
0.0
 26
0.0
 36
1.0
 17
0.0
 27
0.0
 37
0.0
 40
120.78765127569589
 41
2.383399209486166
 42
50.0
 43
0.0
 44
0.0
 50
0.0
 51
0.0
 71
     0
 72
  1000
 73
     1
 74
     3
 75
     0
 76
     0
 77
     0
 78
     0
  0
ENDTAB
  0
TABLE
  2
LTYPE
 70
     2
  0
LTYPE
  2
CONTINUOUS
 70
     0
  3
Solid line
 72
    65
 73
     0
 40
0.0
  0
ENDTAB
  0
TABLE
  2
LAYER
 70
     1
  0
LAYER
  2
0
 70
     0
 62
     7
  6
CONTINUOUS
  0
ENDTAB
  0
TABLE
  2
STYLE
 70
     2
  0
STYLE
  2
STANDARD
 70
     0
 40
0.0
 41
1.0
 50
0.0
 71
     0
 42
2.5
  3
txt
  4

  0
STYLE
  2
ANNOTATIVE
 70
     0
 40
0.0
 41
1.0
 50
0.0
 71
     0
 42
2.5
  3
txt.shx
  4

  0
ENDTAB
  0
TABLE
  2
VIEW
 70
     0
  0
ENDTAB
  0
TABLE
  2
UCS
 70
     0
  0
ENDTAB
  0
TABLE
  2
APPID
 70
     8
  0
APPID
  2
ACAD
 70
     0
  0
APPID
  2
ACAD_PSEXT
 70
     0
  0
APPID
  2
ACADANNOPO
 70
     0
  0
APPID
  2
ACADANNOTATIVE
 70
     0
  0
APPID
  2
ACAD_DSTYLE_DIMJAG
 70
     0
  0
APPID
  2
ACAD_DSTYLE_DIMTALN
 70
     0
  0
APPID
  2
ACAD_MLEADERVER
 70
     0
  0
APPID
  2
ACAD_EXEMPT_FROM_CAD_STANDARDS
 70
     0
  0
ENDTAB
  0
TABLE
  2
DIMSTYLE
 70
     4
  0
DIMSTYLE
  2
ISO-25
 70
     0
  3

  4

  5

  6

  7

 40
1.0
 41
2.5
 42
0.625
 43
3.75
 44
1.25
 45
0.0
 46
0.0
 47
0.0
 48
0.0
140
2.5
141
2.5
142
0.0
143
0.03937007874016
144
1.0
145
0.0
146
1.0
147
0.625
 71
     0
 72
     0
 73
     0
 74
     0
 75
     0
 76
     0
 77
     1
 78
     8
170
     0
171
     3
172
     1
173
     0
174
     0
175
     0
176
     0
177
     0
178
     0
  0
DIMSTYLE
  2
ANNOTATIVE
 70
     0
  3

  4

  5

  6

  7

 40
0.0
 41
2.5
 42
0.625
 43
3.75
 44
1.25
 45
0.0
 46
0.0
 47
0.0
 48
0.0
140
2.5
141
2.5
142
0.0
143
0.03937007874016
144
1.0
145
0.0
146
1.0
147
0.625
 71
     0
 72
     0
 73
     0
 74
     0
 75
     0
 76
     0
 77
     1
 78
     8
170
     0
171
     3
172
     1
173
     0
174
     0
175
     0
176
     0
177
     0
178
     0
  0
DIMSTYLE
  2
STANDARD
 70
     0
  3

  4

  5

  6

  7

 40
1.0
 41
0.18
 42
0.0625
 43
0.38
 44
0.18
 45
0.0
 46
0.0
 47
0.0
 48
0.0
140
0.18
141
0.09
142
0.0
143
25.399999999999999
144
1.0
145
0.0
146
1.0
147
0.09
 71
     0
 72
     0
 73
     1
 74
     1
 75
     0
 76
     0
 77
     0
 78
     0
170
     0
171
     2
172
     0
173
     0
174
     0
175
     0
176
     0
177
     0
178
     0
  0
ENDTAB
  0
ENDSEC
  0
SECTION
  2
BLOCKS
  0
BLOCK
  8
0
  2
$MODEL_SPACE
 70
     0
 10
0.0
 20
0.0
 30
0.0
  3
$MODEL_SPACE
  1

  0
ENDBLK
  5
21
  8
0
  0
BLOCK
 67
     1
  8
0
  2
$PAPER_SPACE
 70
     0
 10
0.0
 20
0.0
 30
0.0
  3
$PAPER_SPACE
  1

  0
ENDBLK
  5
D5
 67
     1
  8
0
  0
BLOCK
  8
0
  2
*U1
 70
     1
 10
0.0
 20
0.0
 30
0.0
  3
*U1
  1

  0
TEXT
  5
1AF
  8
0
 10
4.961203552472071
 20
116.7326924595352
 30
0.0
 40
10.0
  1
  JJ Gripper
  0
ENDBLK
  5
1B0
  8
0
  0
ENDSEC
  0
SECTION
  2
ENTITIES
  0
LINE
  5
218
  8
0
 10
12.49999973359912
 20
97.600000013381162
 30
0.0
 11
2.9999997335991249
 21
97.600000013381162
 31
0.0
  0
LINE
  5
219
  8
0
 10
-0.0000002664008747
 20
100.60000001338111
 30
0.0
 11
-0.0000002664008747
 21
126.7836015638254
 31
0.0
  0
LINE
  5
21A
  8
0
 10
69.999999733599125
 20
100.60000001338111
 30
0.0
 11
69.999999733599154
 21
127.73307773276341
 31
0.0
  0
LINE
  5
21B
  8
0
 10
57.499999733599118
 20
97.600000013381205
 30
0.0
 11
66.999999733599125
 21
97.600000013381205
 31
0.0
  0
CIRCLE
  5
21C
  8
0
 10
5.9999997335991262
 20
103.60000001338111
 30
0.0
 40
1.5
  0
CIRCLE
  5
21D
  8
0
 10
63.999999733599111
 20
103.60000001338111
 30
0.0
 40
1.5
  0
CIRCLE
  5
21E
  8
0
 10
34.999999733599118
 20
132.46685943278871
 30
0.0
 40
1.5
  0
LINE
  5
21F
  8
0
 10
57.519397957363047
 20
48.800000013381172
 30
0.0
 11
67.019397957363054
 21
48.800000013381172
 31
0.0
  0
LINE
  5
220
  8
0
 10
70.01939795736304
 20
51.80000001338118
 30
0.0
 11
70.019397957363068
 21
77.983601563825488
 31
0.0
  0
LINE
  5
221
  8
0
 10
0.0193979573630898
 20
51.80000001338118
 30
0.0
 11
0.0193979573630898
 21
78.933077732763365
 31
0.0
  0
LINE
  5
222
  8
0
 10
12.519397957363079
 20
48.800000013381172
 30
0.0
 11
3.0193979573630889
 21
48.800000013381172
 31
0.0
  0
CIRCLE
  5
223
  8
0
 10
64.019397957363054
 20
54.80000001338118
 30
0.0
 40
1.5
  0
CIRCLE
  5
224
  8
0
 10
6.019397957363088
 20
54.80000001338118
 30
0.0
 40
1.5
  0
CIRCLE
  5
225
  8
0
 10
39.01939795736309
 20
89.666859432788783
 30
0.0
 40
1.5
  0
CIRCLE
  5
226
  8
0
 10
31.01939795736309
 20
89.666859432788783
 30
0.0
 40
1.5
  0
CIRCLE
  5
227
  8
0
 10
19.18854166164606
 20
68.759952498529799
 30
0.0
 40
1.5
  0
CIRCLE
  5
228
  8
0
 10
35.01939795736309
 20
83.666859432788783
 30
0.0
 40
1.5
  0
CIRCLE
  5
229
  8
0
 10
51.019397957363068
 20
68.800000013381165
 30
0.0
 40
11.25
  0
LINE
  5
232
  8
0
 10
57.538796181127047
 20
0.0000000133811682
 30
0.0
 11
67.038796181127054
 21
0.0000000133811682
 31
0.0
  0
LINE
  5
233
  8
0
 10
70.038796181127054
 20
3.0000000133811682
 30
0.0
 11
70.038796181127054
 21
29.183601563825469
 31
0.0
  0
LINE
  5
234
  8
0
 10
12.538796181127051
 20
0.0000000133811682
 30
0.0
 11
3.0387961811270539
 21
0.0000000133811682
 31
0.0
  0
CIRCLE
  5
236
  8
0
 10
6.0387961811270543
 20
6.0000000133811682
 30
0.0
 40
1.5
  0
CIRCLE
  5
237
  8
0
 10
35.038796181127047
 20
34.866859432788829
 30
0.0
 40
1.5
  0
LINE
  5
238
  8
0
 10
38.17265820743021
 20
96.458294651807606
 30
0.0
 11
68.40989053746307
 21
80.641896202251914
 31
0.0
  0
LINE
  5
239
  8
0
 10
1.6943458819801329
 20
81.624589760884959
 30
0.0
 11
31.89278176448509
 21
96.491512041502816
 31
0.0
  0
LINE
  5
23A
  8
0
 10
33.217833839868042
 20
96.800000013381165
 30
0.0
 11
36.782165627330208
 21
96.800000013381165
 31
0.0
  0
LINE
  5
23B
  8
0
 10
33.237232063632042
 20
48.000000013381161
 30
0.0
 11
36.801563851094123
 21
48.000000013381161
 31
0.0
  0
LINE
  5
23C
  8
0
 10
1.713744105744097
 20
32.82458976088494
 30
0.0
 11
31.912179988249111
 21
47.691512041502783
 31
0.0
  0
LINE
  5
23D
  8
0
 10
38.192056431194132
 20
47.658294651807637
 30
0.0
 11
68.429288761227042
 21
31.841896202251959
 31
0.0
  0
LINE
  5
23E
  8
0
 10
36.801563851094173
 20
145.60000001338111
 30
0.0
 11
33.237232063632042
 21
145.60000001338111
 31
0.0
  0
LINE
  5
23F
  8
0
 10
68.325051808982053
 20
130.424589760885
 30
0.0
 11
38.126615926477122
 21
145.2915120415027
 31
0.0
  0
LINE
  5
240
  8
0
 10
31.846739483532058
 20
145.2582946518076
 30
0.0
 11
1.609507153499137
 21
129.44189620225191
 31
0.0
  0
LINE
  5
241
  8
0
 10
0.0387961811270543
 20
30.133077732763329
 30
0.0
 11
0.0387961811270543
 21
3.0000000133811682
 31
0.0
  0
ARC
  5
242
  8
0
 10
3.0387961811270539
 20
3.0000000133811682
 30
0.0
 40
3.0
 50
180.0
 51
270.0
  0
ARC
  5
243
  8
0
 10
3.0193979573630889
 20
51.80000001338118
 30
0.0
 40
3.0
 50
180.0
 51
270.0
  0
ARC
  5
244
  8
0
 10
66.999999733599125
 20
100.60000001338111
 30
0.0
 40
3.0
 50
270.0
 51
0.0
  0
ARC
  5
245
  8
0
 10
67.019397957363054
 20
51.80000001338118
 30
0.0
 40
3.0
 50
270.0
 51
0.0
  0
ARC
  5
246
  8
0
 10
2.9999997335991249
 20
100.60000001338111
 30
0.0
 40
3.0
 50
180.0
 51
270.0
  0
ARC
  5
247
  8
0
 10
67.038796181127054
 20
3.0000000133811682
 30
0.0
 40
3.0
 50
270.0
 51
0.0
  0
ARC
  5
248
  8
0
 10
3.0193979573630889
 20
78.933077732763365
 30
0.0
 40
3.0
 50
116.21137801783151
 51
180.0
  0
ARC
  5
249
  8
0
 10
67.019397957363068
 20
77.983601563825488
 30
0.0
 40
3.0
 50
0.0
 51
62.386972176915521
  0
ARC
  5
24A
  8
0
 10
2.9999997335991249
 20
126.7836015638254
 30
0.0
 40
3.0
 50
117.61302782308439
 51
180.0
  0
ARC
  5
24B
  8
0
 10
66.999999733599154
 20
127.73307773276341
 30
0.0
 40
3.0
 50
0.0
 51
63.788621982168458
  0
ARC
  5
24C
  8
0
 10
36.801563851094173
 20
142.60000001338111
 30
0.0
 40
3.0
 50
63.788621982168458
 51
90.0
  0
ARC
  5
24D
  8
0
 10
33.237232063632042
 20
142.60000001338111
 30
0.0
 40
3.0
 50
90.0
 51
117.61302782308439
  0
ARC
  5
24E
  8
0
 10
36.782165627330208
 20
93.800000013381165
 30
0.0
 40
3.0
 50
62.386972176915521
 51
90.0
  0
ARC
  5
24F
  8
0
 10
33.217833839868042
 20
93.800000013381165
 30
0.0
 40
3.0
 50
90.0
 51
116.21137801783151
  0
ARC
  5
250
  8
0
 10
36.801563851094123
 20
45.000000013381168
 30
0.0
 40
3.0
 50
62.386972176915521
 51
90.0
  0
ARC
  5
251
  8
0
 10
33.237232063632042
 20
45.000000013381168
 30
0.0
 40
3.0
 50
90.0
 51
116.21137801783151
  0
ARC
  5
252
  8
0
 10
3.0387961811270539
 20
30.133077732763329
 30
0.0
 40
3.0
 50
116.21137801783151
 51
180.0
  0
ARC
  5
253
  8
0
 10
67.038796181127054
 20
29.183601563825469
 30
0.0
 40
3.0
 50
0.0
 51
62.386972176915521
  0
CIRCLE
  5
254
  8
0
 10
91.288796181127054
 20
29.875000013381179
 30
0.0
 40
0.75
  0
CIRCLE
  5
255
  8
0
 10
98.663796181127054
 20
22.500000013381172
 30
0.0
 40
0.75
  0
CIRCLE
  5
256
  8
0
 10
83.913796181127054
 20
22.500000013381172
 30
0.0
 40
0.75
  0
CIRCLE
  5
257
  8
0
 10
91.288796181127054
 20
15.12500001338115
 30
0.0
 40
0.75
  0
CIRCLE
  5
258
  8
0
 10
91.288796181127054
 20
22.500000013381172
 30
0.0
 40
4.75
  0
LINE
  5
259
  8
0
 10
57.538796181127047
 20
4.2000000133811701
 30
0.0
 11
12.538796181127051
 21
4.2000000133811701
 31
0.0
  0
LINE
  5
25A
  8
0
 10
12.538796181127051
 20
4.2000000133811701
 30
0.0
 11
12.538796181127051
 21
0.0000000133811682
 31
0.0
  0
LINE
  5
25B
  8
0
 10
57.538796181127047
 20
4.2000000133811701
 30
0.0
 11
57.538796181127047
 21
0.0000000133811682
 31
0.0
  0
LINE
  5
25C
  8
0
 10
57.519397957363083
 20
53.000000013381161
 30
0.0
 11
57.519397957363047
 21
48.800000013381172
 31
0.0
  0
LINE
  5
25D
  8
0
 10
12.519397957363079
 20
53.000000013381161
 30
0.0
 11
12.519397957363079
 21
48.800000013381172
 31
0.0
  0
LINE
  5
25E
  8
0
 10
57.519397957363083
 20
53.000000013381161
 30
0.0
 11
12.519397957363079
 21
53.000000013381161
 31
0.0
  0
LINE
  5
25F
  8
0
 10
12.49999973359912
 20
101.80000001338109
 30
0.0
 11
12.49999973359912
 21
97.600000013381205
 31
0.0
  0
LINE
  5
260
  8
0
 10
57.499999733599118
 20
101.80000001338109
 30
0.0
 11
57.499999733599118
 21
97.600000013381205
 31
0.0
  0
LINE
  5
261
  8
0
 10
12.49999973359912
 20
101.80000001338109
 30
0.0
 11
57.499999733599118
 21
101.80000001338109
 31
0.0
  0
LINE
  5
262
  8
0
 10
75.038796181127054
 20
0.0000000133811682
 30
0.0
 11
75.038796181127054
 21
45.000000013381168
 31
0.0
  0
LINE
  5
263
  8
0
 10
75.038796181127054
 20
0.0000000133811682
 30
0.0
 11
107.538796181127
 21
0.0000000133811682
 31
0.0
  0
LINE
  5
264
  8
0
 10
75.038796181127054
 20
45.000000013381168
 30
0.0
 11
107.538796181127
 21
45.000000013381168
 31
0.0
  0
LINE
  5
265
  8
0
 10
107.538796181127
 20
45.000000013381168
 30
0.0
 11
107.538796181127
 21
0.0000000133811682
 31
0.0
  0
LINE
  5
266
  8
0
 10
22.438541661646092
 20
68.759952498529799
 30
0.0
 11
20.88854166164608
 21
66.009952498529799
 31
0.0
  0
LINE
  5
267
  8
0
 10
17.488541661646071
 20
66.009952498529799
 30
0.0
 11
20.88854166164608
 21
66.009952498529799
 31
0.0
  0
LINE
  5
268
  8
0
 10
15.93854166164607
 20
68.759952498529799
 30
0.0
 11
17.488541661646071
 21
66.009952498529799
 31
0.0
  0
LINE
  5
269
  8
0
 10
20.88854166164608
 20
71.509952498529785
 30
0.0
 11
17.488541661646071
 21
71.509952498529785
 31
0.0
  0
LINE
  5
26A
  8
0
 10
22.438541661646092
 20
68.759952498529799
 30
0.0
 11
20.88854166164608
 21
71.509952498529785
 31
0.0
  0
LINE
  5
26B
  8
0
 10
15.93854166164607
 20
68.759952498529799
 30
0.0
 11
17.488541661646071
 21
71.509952498529785
 31
0.0
  0
LINE
  5
26D
  8
0
 10
35.769397957363097
 20
89.666859432788783
 30
0.0
 11
37.319397957363087
 21
92.416859432788769
 31
0.0
  0
LINE
  5
26E
  8
0
 10
42.26939795736309
 20
89.666859432788783
 30
0.0
 11
40.719397957363078
 21
92.416859432788769
 31
0.0
  0
LINE
  5
26F
  8
0
 10
40.719397957363078
 20
92.416859432788769
 30
0.0
 11
37.319397957363087
 21
92.416859432788769
 31
0.0
  0
LINE
  5
270
  8
0
 10
35.769397957363097
 20
89.666859432788783
 30
0.0
 11
37.319397957363087
 21
86.916859432788783
 31
0.0
  0
LINE
  5
271
  8
0
 10
37.319397957363087
 20
86.916859432788783
 30
0.0
 11
40.719397957363078
 21
86.916859432788783
 31
0.0
  0
LINE
  5
272
  8
0
 10
42.26939795736309
 20
89.666859432788783
 30
0.0
 11
40.719397957363078
 21
86.916859432788783
 31
0.0
  0
LINE
  5
273
  8
0
 10
27.76939795736309
 20
89.666859432788783
 30
0.0
 11
29.319397957363091
 21
92.416859432788769
 31
0.0
  0
LINE
  5
274
  8
0
 10
34.269397957363111
 20
89.666859432788783
 30
0.0
 11
32.719397957363093
 21
92.416859432788769
 31
0.0
  0
LINE
  5
275
  8
0
 10
32.719397957363093
 20
92.416859432788769
 30
0.0
 11
29.319397957363091
 21
92.416859432788769
 31
0.0
  0
LINE
  5
276
  8
0
 10
27.76939795736309
 20
89.666859432788783
 30
0.0
 11
29.319397957363091
 21
86.916859432788783
 31
0.0
  0
LINE
  5
277
  8
0
 10
29.319397957363091
 20
86.916859432788783
 30
0.0
 11
32.719397957363093
 21
86.916859432788783
 31
0.0
  0
LINE
  5
278
  8
0
 10
34.269397957363111
 20
89.666859432788783
 30
0.0
 11
32.719397957363093
 21
86.916859432788783
 31
0.0
  0
INSERT
  5
279
  8
0
  2
*U1
 10
0.0387961811270543
 20
0.0000000133811682
 30
0.0
  0
CIRCLE
  5
313
  8
0
 10
254.12223210071349
 20
55.434632910361252
 30
0.0
 40
1.5
  0
CIRCLE
  5
314
  8
0
 10
254.12223210071349
 20
55.434632910361252
 30
0.0
 40
1.5
  0
ARC
  5
315
  8
0
 10
254.16227961556481
 20
55.265489206078271
 30
0.0
 40
12.5
 50
159.22623898830449
 51
346.11345963737051
  0
ARC
  5
316
  8
0
 10
282.66227961556501
 20
55.265489206078271
 30
0.0
 40
3.0
 50
270.0
 51
90.0
  0
LINE
  5
317
  8
0
 10
266.29694071507657
 20
52.265489206078271
 30
0.0
 11
282.66227961556501
 21
52.265489206078271
 31
0.0
  0
LINE
  5
318
  8
0
 10
266.29694071507657
 20
58.265489206078271
 30
0.0
 11
282.66227961556501
 21
58.265489206078271
 31
0.0
  0
CIRCLE
  5
319
  8
0
 10
282.66227961556501
 20
55.265489206078271
 30
0.0
 40
1.5
  0
ARC
  5
31A
  8
0
 10
254.16227961556481
 20
55.265489206078271
 30
0.0
 40
12.5
 50
13.886540362629519
 51
50.740036467961993
  0
POLYLINE
  5
31B
  8
0
 66
     1
 10
0.0
 20
0.0
 30
0.0
  0
VERTEX
  5
427
  8
0
 10
246.0172901952138
 20
64.751165961461894
 30
0.0
  0
VERTEX
  5
428
  8
0
 10
246.02421009359389
 20
64.753472366664496
 30
0.0
  0
SEQEND
  5
429
  8
0
  0
LINE
  5
31C
  8
0
 10
263.42457893151658
 20
67.285407258062108
 30
0.0
 11
262.07277940454861
 21
64.944021795706121
 31
0.0
  0
LINE
  5
31D
  8
0
 10
239.24581079403711
 20
65.178305171988271
 30
0.0
 11
242.27145775301261
 21
64.737045618424133
 31
0.0
  0
LINE
  5
31E
  8
0
 10
238.74581079403711
 20
64.312279768203851
 30
0.0
 11
239.24581079403711
 21
65.178305171988271
 31
0.0
  0
LINE
  5
31F
  8
0
 10
238.24581079403711
 20
63.446254364419403
 30
0.0
 11
240.1407762565739
 21
61.046597011845527
 31
0.0
  0
LINE
  5
320
  8
0
 10
238.74581079403711
 20
64.312279768203851
 30
0.0
 11
238.24581079403711
 21
63.446254364419403
 31
0.0
  0
LINE
  5
321
  8
0
 10
240.1407762565739
 20
61.046597011845527
 30
0.0
 11
242.47492709070579
 21
59.698974399430298
 31
0.0
  0
LINE
  5
322
  8
0
 10
242.27145775301261
 20
64.737045618424133
 30
0.0
 11
244.64351746764149
 21
63.367536303649331
 31
0.0
  0
LINE
  5
323
  8
0
 10
244.8198852699106
 20
67.285473135322022
 30
0.0
 11
246.19748902331619
 21
64.899393441725763
 31
0.0
  0
ARC
  5
324
  8
0
 10
254.16227961556481
 20
55.265489206078271
 30
0.0
 40
12.5
 50
129.5821005805573
 51
139.59669952148531
  0
LINE
  5
325
  8
0
 10
253.12223210071349
 20
73.189794871526672
 30
0.0
 11
251.99155060427501
 21
70.348877965388681
 31
0.0
  0
LINE
  5
326
  8
0
 10
254.12223210071349
 20
73.189794871526672
 30
0.0
 11
255.12223210071349
 21
73.189794871526672
 31
0.0
  0
LINE
  5
327
  8
0
 10
254.12223210071349
 20
73.189794871526672
 30
0.0
 11
253.12223210071349
 21
73.189794871526672
 31
0.0
  0
LINE
  5
328
  8
0
 10
263.86583848508081
 20
70.311054217037622
 30
0.0
 11
263.42457893151658
 21
67.285407258062108
 31
0.0
  0
LINE
  5
329
  8
0
 10
262.99981308129622
 20
70.811054217037636
 30
0.0
 11
263.86583848508081
 21
70.311054217037622
 31
0.0
  0
LINE
  5
32A
  8
0
 10
262.13378767751192
 20
71.311054217037636
 30
0.0
 11
259.73413032493789
 21
69.416088754500791
 31
0.0
  0
LINE
  5
32B
  8
0
 10
262.99981308129622
 20
70.811054217037636
 30
0.0
 11
262.13378767751192
 21
71.311054217037636
 31
0.0
  0
LINE
  5
32C
  8
0
 10
259.73413032493789
 20
69.416088754500791
 30
0.0
 11
258.36170051745597
 21
67.038970598120244
 31
0.0
  0
ARC
  5
32D
  8
0
 10
254.16227961556481
 20
55.265489206078271
 30
0.0
 40
12.5
 50
70.369459314614275
 51
80.371991679146845
  0
LINE
  5
32E
  8
0
 10
256.2529135971522
 20
70.348877965388681
 30
0.0
 11
256.2529135971522
 21
67.589419161860761
 31
0.0
  0
LINE
  5
32F
  8
0
 10
255.12223210071349
 20
73.189794871526672
 30
0.0
 11
256.2529135971522
 21
70.348877965388681
 31
0.0
  0
LINE
  5
330
  8
0
 10
251.99155060427501
 20
70.348877965388681
 30
0.0
 11
251.99155060427501
 21
67.575563761479756
 31
0.0
  0
ARC
  5
331
  8
0
 10
254.16227961556481
 20
55.265489206078271
 30
0.0
 40
12.5
 50
100.0005901305659
 51
109.951434137737
  0
LINE
  5
332
  8
0
 10
248.51033387648911
 20
69.416154631760676
 30
0.0
 11
249.8969858036935
 21
67.015266595391324
 31
0.0
  0
LINE
  5
333
  8
0
 10
246.1106765239152
 20
71.311120094297522
 30
0.0
 11
248.51033387648911
 21
69.416154631760676
 31
0.0
  0
LINE
  5
334
  8
0
 10
245.24465112013081
 20
70.811120094297507
 30
0.0
 11
244.37862571634639
 21
70.311120094297507
 31
0.0
  0
LINE
  5
335
  8
0
 10
244.37862571634639
 20
70.311120094297507
 30
0.0
 11
244.8198852699106
 21
67.285473135322022
 31
0.0
  0
LINE
  5
336
  8
0
 10
245.24465112013081
 20
70.811120094297507
 30
0.0
 11
246.1106765239152
 21
71.311120094297522
 31
0.0
  0
ARC
  5
337
  8
0
 10
250.83504221849051
 20
81.412201504409495
 30
0.0
 40
3.0
 50
270.0
 51
90.0
  0
LINE
  5
338
  8
0
 10
234.43146934789129
 20
84.412201504409481
 30
0.0
 11
250.83504221849051
 21
84.412201504409481
 31
0.0
  0
LINE
  5
339
  8
0
 10
234.42342255351241
 20
78.412201504409452
 30
0.0
 11
250.83504221849051
 21
78.412201504409481
 31
0.0
  0
CIRCLE
  5
33A
  8
0
 10
250.83504221849051
 20
81.412201504409495
 30
0.0
 40
1.5
  0
ARC
  5
33B
  8
0
 10
222.28990002048511
 20
81.416803132000226
 30
0.0
 40
12.5
 50
324.259963532038
 51
346.09173128384668
  0
POLYLINE
  5
33C
  8
0
 66
     1
 10
0.0
 20
0.0
 30
0.0
 70
     1
  0
VERTEX
  5
42A
  8
0
 10
227.4376865209945
 20
70.12123930870051
 30
0.0
  0
VERTEX
  5
42B
  8
0
 10
227.4376865209945
 20
70.12123930870051
 30
0.0
  0
SEQEND
  5
42C
  8
0
  0
POLYLINE
  5
33D
  8
0
 66
     1
 10
0.0
 20
0.0
 30
0.0
  0
VERTEX
  5
42D
  8
0
 10
216.87751818449641
 20
70.146264589999859
 30
0.0
  0
VERTEX
  5
42E
  8
0
 10
216.88479923464919
 20
70.14582777513975
 30
0.0
  0
SEQEND
  5
42F
  8
0
  0
CIRCLE
  5
33E
  8
0
 10
222.29499470363911
 20
81.243057800126536
 30
0.0
 40
1.5
  0
LINE
  5
33F
  8
0
 10
226.8903687680685
 20
64.092888311891613
 30
0.0
 11
225.92444294177949
 21
63.834069266789051
 31
0.0
  0
LINE
  5
340
  8
0
 10
225.92444294177949
 20
63.834069266789051
 30
0.0
 11
224.09700508220001
 21
66.285542371545645
 31
0.0
  0
LINE
  5
341
  8
0
 10
226.8903687680685
 20
64.092888311891613
 30
0.0
 11
227.85629459435759
 21
64.351707356994112
 31
0.0
  0
LINE
  5
342
  8
0
 10
227.85629459435759
 20
64.351707356994112
 30
0.0
 11
228.21316565221269
 21
67.388464272197368
 31
0.0
  0
LINE
  5
343
  8
0
 10
228.21316565221269
 20
67.388464272197368
 30
0.0
 11
227.49896515968379
 21
70.053896797105665
 31
0.0
  0
LINE
  5
344
  8
0
 10
224.09700508220001
 20
66.285542371545645
 30
0.0
 11
223.37921854817509
 21
68.964358185515536
 31
0.0
  0
LINE
  5
345
  8
0
 10
235.5568969086311
 20
69.395369157507602
 30
0.0
 11
234.34757785300729
 21
72.203713320119178
 31
0.0
  0
LINE
  5
346
  8
0
 10
234.84979012744461
 20
68.688262376321049
 30
0.0
 11
235.5568969086311
 21
69.395369157507602
 31
0.0
  0
LINE
  5
347
  8
0
 10
234.142683346258
 20
67.981155595134496
 30
0.0
 11
231.33433918364651
 21
69.190474650758219
 31
0.0
  0
LINE
  5
348
  8
0
 10
234.84979012744461
 20
68.688262376321049
 30
0.0
 11
234.142683346258
 21
67.981155595134496
 31
0.0
  0
LINE
  5
349
  8
0
 10
231.33433918364651
 20
69.190474650758219
 30
0.0
 11
229.3934303365007
 21
71.131383497904139
 31
0.0
  0
LINE
  5
34A
  8
0
 10
234.34757785300729
 20
72.203713320119178
 30
0.0
 11
232.4358446283598
 21
74.115446544766698
 31
0.0
  0
LINE
  5
34B
  8
0
 10
210.4473231113096
 20
67.981091962587797
 30
0.0
 11
213.2556672739212
 21
69.190411018211549
 31
0.0
  0
LINE
  5
34C
  8
0
 10
209.7402163301231
 20
68.68819874377435
 30
0.0
 11
210.4473231113096
 21
67.981091962587797
 31
0.0
  0
LINE
  5
34D
  8
0
 10
209.03310954893661
 20
69.395305524960904
 30
0.0
 11
210.2424286045603
 21
72.203649687572479
 31
0.0
  0
LINE
  5
34E
  8
0
 10
209.7402163301231
 20
68.68819874377435
 30
0.0
 11
209.03310954893661
 21
69.395305524960904
 31
0.0
  0
LINE
  5
34F
  8
0
 10
210.2424286045603
 20
72.203649687572479
 30
0.0
 11
212.14825477999861
 21
74.109475863010758
 31
0.0
  0
LINE
  5
350
  8
0
 10
213.2556672739212
 20
69.190411018211549
 30
0.0
 11
215.19244592067199
 21
71.127189664962373
 31
0.0
  0
LINE
  5
351
  8
0
 10
220.49300137536781
 20
66.285478738998947
 30
0.0
 11
221.21100873495681
 21
68.963450427045174
 31
0.0
  0
LINE
  5
352
  8
0
 10
216.3768408053551
 20
67.388400639650669
 30
0.0
 11
217.08994098132729
 21
70.049726727265295
 31
0.0
  0
LINE
  5
353
  8
0
 10
217.69963768949921
 20
64.092824679344901
 30
0.0
 11
216.73371186321009
 21
64.351643724447442
 31
0.0
  0
LINE
  5
354
  8
0
 10
216.73371186321009
 20
64.351643724447442
 30
0.0
 11
216.3768408053551
 21
67.388400639650669
 31
0.0
  0
LINE
  5
355
  8
0
 10
217.69963768949921
 20
64.092824679344901
 30
0.0
 11
218.66556351578831
 21
63.834005634242381
 31
0.0
  0
LINE
  5
356
  8
0
 10
218.66556351578831
 20
63.834005634242381
 30
0.0
 11
220.49300137536781
 21
66.285478738998947
 31
0.0
  0
ARC
  5
357
  8
0
 10
222.28990002048511
 20
81.416803132000226
 30
0.0
 40
12.5
 50
294.62800832085389
 51
304.63054068538361
  0
ARC
  5
358
  8
0
 10
222.28990002048511
 20
81.416803132000226
 30
0.0
 40
12.5
 50
265.04856586226322
 51
274.99940986943398
  0
ARC
  5
359
  8
0
 10
222.28990002048511
 20
81.416803132000226
 30
0.0
 40
12.5
 50
235.4033004785145
 51
245.41789941944151
  0
ARC
  5
35A
  8
0
 10
222.28990002048511
 20
81.416803132000226
 30
0.0
 40
12.5
 50
28.886540362629258
 51
215.77376101169469
  0
ARC
  5
35B
  8
0
 10
222.65256431336709
 20
81.536417572840264
 30
0.0
 40
12.124880908009439
 50
13.720183987099221
 51
29.219512648847282
  0
LINE
  5
35C
  8
0
 10
260.6528812592216
 20
32.737732770906391
 30
0.0
 11
260.6528812592216
 21
36.737732770906391
 31
0.0
  0
LINE
  5
35D
  8
0
 10
262.6528812592216
 20
38.737732770906391
 30
0.0
 11
295.1528812592216
 21
38.737732770906391
 31
0.0
  0
LINE
  5
35E
  8
0
 10
297.1528812592216
 20
36.737732770906391
 30
0.0
 11
297.1528812592216
 21
32.737732770906391
 31
0.0
  0
LINE
  5
35F
  8
0
 10
295.1528812592216
 20
30.73773277090638
 30
0.0
 11
262.6528812592216
 21
30.737732770906391
 31
0.0
  0
ARC
  5
360
  8
0
 10
295.1528812592216
 20
36.737732770906391
 30
0.0
 40
2.0
 50
0.0
 51
90.0
  0
ARC
  5
361
  8
0
 10
295.1528812592216
 20
32.737732770906391
 30
0.0
 40
2.0
 50
270.0
 51
0.0
  0
ARC
  5
362
  8
0
 10
262.6528812592216
 20
36.737732770906391
 30
0.0
 40
2.0
 50
90.0
 51
180.0
  0
ARC
  5
363
  8
0
 10
262.6528812592216
 20
32.737732770906391
 30
0.0
 40
2.0
 50
180.0
 51
270.0
  0
LINE
  5
364
  8
0
 10
260.50531957254418
 20
20.796407278626919
 30
0.0
 11
260.50531957254418
 21
24.796407278626919
 31
0.0
  0
LINE
  5
365
  8
0
 10
262.50531957254418
 20
26.796407278626919
 30
0.0
 11
295.00531957254429
 21
26.796407278626919
 31
0.0
  0
LINE
  5
366
  8
0
 10
297.00531957254429
 20
24.796407278626919
 30
0.0
 11
297.00531957254429
 21
20.796407278626919
 31
0.0
  0
LINE
  5
367
  8
0
 10
295.00531957254429
 20
18.796407278626909
 30
0.0
 11
262.50531957254418
 21
18.796407278626909
 31
0.0
  0
ARC
  5
368
  8
0
 10
295.00531957254429
 20
24.796407278626919
 30
0.0
 40
2.0
 50
0.0
 51
90.0
  0
ARC
  5
369
  8
0
 10
295.00531957254429
 20
20.796407278626909
 30
0.0
 40
2.0
 50
270.0
 51
0.0
  0
ARC
  5
36A
  8
0
 10
262.50531957254418
 20
24.796407278626919
 30
0.0
 40
2.0
 50
90.0
 51
180.0
  0
ARC
  5
36B
  8
0
 10
262.50531957254418
 20
20.796407278626919
 30
0.0
 40
2.0
 50
180.0
 51
270.0
  0
ARC
  5
36C
  8
0
 10
210.9419290235121
 20
34.184353159130737
 30
0.0
 40
3.0
 50
90.0
 51
270.0
  0
ARC
  5
36D
  8
0
 10
240.9419290235121
 20
34.184353159130737
 30
0.0
 40
3.0
 50
270.0
 51
90.0
  0
LINE
  5
36E
  8
0
 10
240.9419290235121
 20
37.184353159130737
 30
0.0
 11
210.9419290235121
 21
37.184353159130737
 31
0.0
  0
LINE
  5
36F
  8
0
 10
240.9419290235121
 20
31.18435315913074
 30
0.0
 11
210.9419290235121
 21
31.18435315913074
 31
0.0
  0
CIRCLE
  5
370
  8
0
 10
240.9419290235121
 20
34.184353159130737
 30
0.0
 40
1.5
  0
CIRCLE
  5
371
  8
0
 10
210.9419290235121
 20
34.184353159130737
 30
0.0
 40
1.5
  0
CIRCLE
  5
372
  8
0
 10
211.5091688405775
 20
21.606212101859899
 30
0.0
 40
1.5
  0
CIRCLE
  5
373
  8
0
 10
241.50916884057759
 20
21.606212101859899
 30
0.0
 40
1.5
  0
LINE
  5
374
  8
0
 10
241.50916884057759
 20
18.606212101859889
 30
0.0
 11
211.5091688405775
 21
18.606212101859889
 31
0.0
  0
LINE
  5
375
  8
0
 10
241.50916884057759
 20
24.606212101859899
 30
0.0
 11
211.5091688405775
 21
24.606212101859899
 31
0.0
  0
ARC
  5
376
  8
0
 10
241.50916884057759
 20
21.606212101859899
 30
0.0
 40
3.0
 50
270.0
 51
90.0
  0
ARC
  5
377
  8
0
 10
211.5091688405775
 20
21.606212101859899
 30
0.0
 40
3.0
 50
90.0
 51
270.0
  0
LINE
  5
378
  8
0
 10
130.78906442334571
 20
47.039292810105792
 30
0.0
 11
130.78906442334571
 21
43.039292810105792
 31
0.0
  0
LINE
  5
379
  8
0
 10
132.78906442334571
 20
41.039292810105792
 30
0.0
 11
174.28906442334571
 21
41.039292810105792
 31
0.0
  0
LINE
  5
37A
  8
0
 10
174.28906442334571
 20
49.039292810105792
 30
0.0
 11
132.78906442334571
 21
49.039292810105792
 31
0.0
  0
LINE
  5
37B
  8
0
 10
196.66529671319631
 20
38.83028613182428
 30
0.0
 11
176.28892539411041
 21
47.062874532090262
 31
0.0
  0
LINE
  5
37C
  8
0
 10
174.92451022119161
 20
41.142925588811359
 30
0.0
 11
194.41765715270091
 21
33.267183004423551
 31
0.0
  0
ARC
  5
37D
  8
0
 10
195.54147693294851
 20
36.048734568123912
 30
0.0
 40
3.0
 50
248.0000000000004
 51
68.000000000000483
  0
ARC
  5
37E
  8
0
 10
132.78906442334571
 20
47.039292810105792
 30
0.0
 40
2.0
 50
90.0
 51
180.0
  0
ARC
  5
37F
  8
0
 10
132.78906442334571
 20
43.039292810105792
 30
0.0
 40
2.0
 50
180.0
 51
270.0
  0
ARC
  5
380
  8
0
 10
174.28906442334571
 20
43.039292810105792
 30
0.0
 40
2.0
 50
270.0
 51
288.52527122477198
  0
ARC
  5
381
  8
0
 10
174.28906442334571
 20
47.039292810105792
 30
0.0
 40
2.0
 50
0.0
 51
90.0
  0
CIRCLE
  5
382
  8
0
 10
173.28906442334571
 20
45.039292810105792
 30
0.0
 40
1.5
  0
CIRCLE
  5
383
  8
0
 10
195.54147693294851
 20
36.048734568123912
 30
0.0
 40
1.5
  0
LINE
  5
384
  8
0
 10
129.69457914669491
 20
30.99648117146192
 30
0.0
 11
129.69457914669491
 21
26.99648117146193
 31
0.0
  0
LINE
  5
385
  8
0
 10
131.69457914669491
 20
24.99648117146192
 30
0.0
 11
173.19457914669479
 21
24.99648117146192
 31
0.0
  0
LINE
  5
386
  8
0
 10
173.19457914669479
 20
32.99648117146193
 30
0.0
 11
131.69457914669491
 21
32.99648117146193
 31
0.0
  0
LINE
  5
387
  8
0
 10
195.57081143654551
 20
22.787474493180401
 30
0.0
 11
175.19444011745961
 21
31.020062893446401
 31
0.0
  0
LINE
  5
388
  8
0
 10
173.83002494454081
 20
25.100113950167501
 30
0.0
 11
193.32317187605
 21
17.224371365779671
 31
0.0
  0
ARC
  5
389
  8
0
 10
194.4469916562978
 20
20.00592292948004
 30
0.0
 40
3.0
 50
248.0000000000004
 51
68.000000000000483
  0
ARC
  5
38A
  8
0
 10
131.69457914669491
 20
30.99648117146192
 30
0.0
 40
2.0
 50
90.0
 51
180.0
  0
ARC
  5
38B
  8
0
 10
131.69457914669491
 20
26.99648117146193
 30
0.0
 40
2.0
 50
180.0
 51
270.0
  0
ARC
  5
38C
  8
0
 10
173.19457914669479
 20
26.99648117146193
 30
0.0
 40
2.0
 50
270.0
 51
288.52527122477198
  0
ARC
  5
38D
  8
0
 10
173.19457914669479
 20
30.99648117146192
 30
0.0
 40
2.0
 50
0.0
 51
90.0
  0
CIRCLE
  5
38E
  8
0
 10
172.19457914669479
 20
28.99648117146192
 30
0.0
 40
1.5
  0
CIRCLE
  5
38F
  8
0
 10
194.4469916562978
 20
20.00592292948004
 30
0.0
 40
1.5
  0
CIRCLE
  5
390
  8
0
 10
194.17743895474979
 20
89.148260911946124
 30
0.0
 40
1.5
  0
CIRCLE
  5
391
  8
0
 10
171.9250264451469
 20
80.157702669964223
 30
0.0
 40
1.5
  0
ARC
  5
392
  8
0
 10
172.9250264451469
 20
78.157702669964223
 30
0.0
 40
2.0
 50
270.0
 51
0.0
  0
ARC
  5
393
  8
0
 10
172.9250264451469
 20
82.157702669964223
 30
0.0
 40
2.0
 50
71.474728775227931
 51
90.0
  0
ARC
  5
394
  8
0
 10
131.4250264451469
 20
82.157702669964223
 30
0.0
 40
2.0
 50
90.0
 51
180.0
  0
ARC
  5
395
  8
0
 10
131.4250264451469
 20
78.157702669964223
 30
0.0
 40
2.0
 50
180.0
 51
270.0
  0
ARC
  5
396
  8
0
 10
194.17743895474979
 20
89.148260911946124
 30
0.0
 40
3.0
 50
291.9999999999996
 51
111.9999999999995
  0
LINE
  5
397
  8
0
 10
173.56047224299289
 20
84.054069891258635
 30
0.0
 11
193.0536191745021
 21
91.929812475646486
 31
0.0
  0
LINE
  5
398
  8
0
 10
195.3012587349975
 20
86.366709348245735
 30
0.0
 11
174.92488741591171
 21
78.134120947979753
 31
0.0
  0
LINE
  5
399
  8
0
 10
172.9250264451469
 20
76.157702669964223
 30
0.0
 11
131.4250264451469
 21
76.157702669964223
 31
0.0
  0
LINE
  5
39A
  8
0
 10
131.4250264451469
 20
84.157702669964223
 30
0.0
 11
172.9250264451469
 21
84.157702669964223
 31
0.0
  0
LINE
  5
39B
  8
0
 10
129.4250264451469
 20
78.157702669964223
 30
0.0
 11
129.4250264451469
 21
82.157702669964223
 31
0.0
  0
LINE
  5
39C
  8
0
 10
130.66532523265661
 20
57.715942073043138
 30
0.0
 11
130.66532523265661
 21
61.715942073043131
 31
0.0
  0
LINE
  5
39D
  8
0
 10
132.66532523265661
 20
63.715942073043138
 30
0.0
 11
174.16532523265661
 21
63.715942073043138
 31
0.0
  0
LINE
  5
39E
  8
0
 10
174.16532523265661
 20
55.715942073043138
 30
0.0
 11
132.66532523265661
 21
55.715942073043138
 31
0.0
  0
LINE
  5
39F
  8
0
 10
196.54155752250719
 20
65.924948751324649
 30
0.0
 11
176.1651862034214
 21
57.69236035105866
 31
0.0
  0
LINE
  5
3A0
  8
0
 10
174.80077103050249
 20
63.61230929433755
 30
0.0
 11
194.29391796201179
 21
71.4880518787254
 31
0.0
  0
ARC
  5
3A1
  8
0
 10
195.4177377422595
 20
68.706500315025039
 30
0.0
 40
3.0
 50
291.9999999999996
 51
111.9999999999995
  0
ARC
  5
3A2
  8
0
 10
132.66532523265661
 20
57.715942073043138
 30
0.0
 40
2.0
 50
180.0
 51
270.0
  0
ARC
  5
3A3
  8
0
 10
132.66532523265661
 20
61.715942073043131
 30
0.0
 40
2.0
 50
90.0
 51
180.0
  0
ARC
  5
3A4
  8
0
 10
174.16532523265661
 20
61.715942073043131
 30
0.0
 40
2.0
 50
71.474728775227931
 51
90.0
  0
ARC
  5
3A5
  8
0
 10
174.16532523265661
 20
57.715942073043138
 30
0.0
 40
2.0
 50
270.0
 51
0.0
  0
CIRCLE
  5
3A6
  8
0
 10
173.16532523265661
 20
59.715942073043131
 30
0.0
 40
1.5
  0
CIRCLE
  5
3A7
  8
0
 10
195.4177377422595
 20
68.706500315025039
 30
0.0
 40
1.5
  0
CIRCLE
  5
3BC
  8
0
 10
65.538800697603335
 20
25.25000002195787
 30
0.0
 40
1.5
  0
CIRCLE
  5
3BD
  8
0
 10
65.538800697603335
 20
14.75000002195784
 30
0.0
 40
1.5
  0
CIRCLE
  5
3BE
  8
0
 10
16.538800697603389
 20
25.25000002195787
 30
0.0
 40
1.5
  0
CIRCLE
  5
3BF
  8
0
 10
16.538800697603389
 20
14.75000002195784
 30
0.0
 40
1.5
  0
LINE
  5
3C0
  8
0
 10
20.538800697603449
 20
9.7500000219578595
 30
0.0
 11
20.538800697603449
 21
30.25000002195792
 31
0.0
  0
LINE
  5
3C1
  8
0
 10
61.538800697603328
 20
9.7500000219578595
 30
0.0
 11
20.538800697603449
 21
9.7500000219578595
 31
0.0
  0
LINE
  5
3C3
  8
0
 10
20.538800697603449
 20
30.25000002195792
 30
0.0
 11
61.538800697603328
 21
30.25000002195792
 31
0.0
  0
LINE
  5
3CB
  8
0
 10
61.538800697603328
 20
30.25000002195792
 30
0.0
 11
61.538800697603328
 21
9.7500000219578595
 31
0.0
  0
ENDSEC
  0
EOF
